<?xml version="1.0" encoding="utf-8" ?>
<svg baseProfile="full" height="1024" version="1.1" width="1024" xmlns="http://www.w3.org/2000/svg" xmlns:ev="http://www.w3.org/2001/xml-events" xmlns:xlink="http://www.w3.org/1999/xlink"><defs><linearGradient id="grad" x1="0" x2="1" y1="0" y2="1"><stop offset="0" stop-color="rgb(140,0,255)" /><stop offset="1" stop-color="rgb(220,0,255)" /></linearGradient></defs><polygon fill="url(#grad)" points="341,383 340,384 334,384 333,385 328,385 327,386 324,386 323,387 320,387 319,388 316,388 315,389 313,389 312,390 310,390 309,391 307,391 306,392 305,392 304,393 302,393 301,394 300,394 299,395 298,395 297,396 295,396 294,397 293,397 292,398 291,398 290,399 289,399 287,401 286,401 285,402 284,402 282,404 281,404 279,406 278,406 277,407 276,407 273,410 272,410 269,413 268,413 262,419 261,419 254,426 254,427 248,433 248,434 245,437 245,438 242,441 242,442 240,444 240,445 238,447 238,448 237,449 237,450 235,452 235,453 234,454 234,455 233,456 233,457 232,458 232,459 230,461 230,462 229,463 229,465 228,466 228,467 227,468 227,469 226,470 226,472 225,473 225,474 224,475 224,477 223,478 223,480 222,481 222,483 221,484 221,487 220,488 220,491 219,492 219,495 218,496 218,500 217,501 217,509 216,510 216,534 217,535 217,542 218,543 218,548 219,549 219,553 220,554 220,557 221,558 221,561 222,562 222,565 223,566 223,568 224,569 224,570 225,571 225,573 226,574 226,575 227,576 227,577 228,578 228,580 229,581 229,582 230,583 230,584 231,585 231,586 233,588 233,589 234,590 234,591 235,592 235,593 237,595 237,596 238,597 238,598 241,601 241,602 244,605 244,606 250,612 250,613 251,613 257,619 258,619 260,621 261,621 262,622 263,622 264,623 265,623 266,624 268,624 269,625 280,625 281,624 283,624 284,623 286,623 287,622 288,622 289,621 291,621 293,619 294,619 295,618 296,618 298,616 299,616 301,614 302,614 304,612 305,612 309,608 310,608 362,556 362,555 389,528 390,528 438,576 438,577 434,581 434,582 415,601 414,601 411,604 410,604 408,606 407,606 406,607 405,607 403,609 402,609 401,610 400,610 399,611 398,611 397,612 395,612 394,613 393,613 392,614 391,614 390,615 388,615 387,616 385,616 384,617 381,617 380,618 377,618 376,619 371,619 370,620 364,620 363,621 344,621 343,620 337,620 336,619 332,619 331,618 329,618 328,617 324,617 314,627 313,627 311,629 310,629 308,631 307,631 305,633 303,633 301,635 299,635 298,636 297,636 296,637 293,637 292,638 289,638 288,639 287,639 287,641 288,642 289,642 290,643 291,643 293,645 294,645 295,646 296,646 297,647 298,647 299,648 300,648 301,649 302,649 303,650 305,650 306,651 307,651 308,652 310,652 311,653 313,653 314,654 316,654 317,655 320,655 321,656 324,656 325,657 329,657 330,658 335,658 336,659 345,659 346,660 361,660 362,659 371,659 372,658 377,658 378,657 383,657 384,656 387,656 388,655 390,655 391,654 394,654 395,653 397,653 398,652 400,652 401,651 402,651 403,650 405,650 406,649 407,649 408,648 409,648 410,647 412,647 413,646 414,646 415,645 416,645 418,643 419,643 420,642 421,642 422,641 423,641 425,639 426,639 428,637 429,637 430,636 431,636 433,634 434,634 437,631 438,631 443,626 444,626 461,609 461,608 465,604 465,603 468,600 468,599 470,597 470,596 473,593 473,592 475,590 475,589 477,587 477,586 479,584 479,583 481,581 481,580 484,577 484,576 486,574 486,573 489,570 489,569 492,566 492,565 494,563 494,562 497,559 497,558 500,555 500,554 502,552 502,551 505,548 505,547 508,544 508,543 511,540 511,539 514,536 514,535 517,532 517,531 520,528 520,527 524,523 524,522 527,519 527,518 532,513 532,512 536,508 536,507 540,503 540,502 546,496 546,495 553,488 553,487 581,459 582,459 588,453 589,453 593,449 594,449 597,446 598,446 601,443 602,443 604,441 605,441 606,440 607,440 609,438 610,438 611,437 612,437 613,436 614,436 615,435 616,435 617,434 618,434 619,433 620,433 621,432 622,432 623,431 625,431 626,430 627,430 628,429 630,429 631,428 633,428 634,427 636,427 637,426 640,426 641,425 645,425 646,424 654,424 655,423 667,423 668,424 675,424 676,425 682,425 683,426 684,426 686,424 686,423 687,422 687,421 688,420 688,419 689,418 689,417 690,416 690,415 691,414 691,412 692,411 692,410 693,409 693,408 694,407 694,406 695,405 695,404 696,403 696,402 697,401 697,400 698,399 698,397 699,396 699,395 700,394 700,393 699,393 698,392 697,392 696,391 695,391 694,390 692,390 691,389 689,389 688,388 685,388 684,387 680,387 679,386 674,386 673,385 645,385 644,386 639,386 638,387 634,387 633,388 630,388 629,389 626,389 625,390 622,390 621,391 619,391 618,392 616,392 615,393 613,393 612,394 611,394 610,395 608,395 607,396 606,396 605,397 604,397 603,398 602,398 601,399 599,399 597,401 596,401 595,402 594,402 593,403 592,403 590,405 589,405 588,406 587,406 585,408 584,408 582,410 581,410 579,412 578,412 576,414 575,414 573,416 572,416 568,420 567,420 562,425 561,425 549,437 548,437 536,449 536,450 526,460 526,461 520,467 520,468 516,472 516,473 511,478 511,479 508,482 508,483 504,487 504,488 501,491 501,492 497,496 497,497 494,500 494,501 492,503 492,504 489,507 489,508 486,511 486,512 484,514 484,515 481,518 481,519 479,521 479,522 477,524 477,525 474,528 474,529 472,531 472,532 470,534 470,535 468,537 468,538 465,541 465,542 463,544 463,545 460,548 460,549 457,552 457,553 456,554 437,535 437,534 412,509 411,509 408,506 407,506 405,504 404,504 402,502 401,502 400,501 398,501 397,500 395,500 394,499 387,499 386,500 383,500 382,501 381,501 380,502 379,502 378,503 377,503 375,505 374,505 371,508 370,508 355,523 354,523 353,524 353,525 327,551 327,552 308,571 308,572 302,578 301,578 296,583 295,583 292,586 291,586 290,587 289,587 288,588 287,588 286,589 281,589 279,587 278,587 275,584 275,583 273,581 273,580 271,578 271,577 269,575 269,574 268,573 268,572 266,570 266,569 265,568 265,567 264,566 264,565 263,564 263,563 262,562 262,560 261,559 261,558 260,557 260,555 259,554 259,552 258,551 258,548 257,547 257,544 256,543 256,537 255,536 255,510 256,509 256,505 257,504 257,500 258,499 258,496 259,495 259,494 260,493 260,491 261,490 261,488 262,487 262,486 263,485 263,483 264,482 264,481 265,480 265,479 266,478 266,477 268,475 268,474 269,473 269,472 270,471 270,470 273,467 273,466 276,463 276,462 280,458 280,457 290,447 291,447 295,443 296,443 298,441 299,441 301,439 302,439 303,438 304,438 306,436 307,436 308,435 309,435 310,434 312,434 313,433 314,433 315,432 316,432 317,431 318,431 319,430 321,430 322,429 324,429 325,428 328,428 329,427 332,427 333,426 336,426 337,425 342,425 343,424 372,424 373,425 378,425 379,426 382,426 383,427 386,427 387,428 389,428 390,429 392,429 393,430 395,430 396,431 398,431 399,432 400,432 401,433 402,433 403,434 404,434 405,435 406,435 407,436 408,436 409,437 410,437 411,438 412,438 413,439 414,439 416,441 417,441 419,443 420,443 422,445 423,445 426,448 427,448 430,451 431,451 434,454 435,454 440,459 441,459 454,472 455,472 469,486 469,487 475,493 476,493 476,492 480,488 480,487 484,483 484,482 489,477 489,476 493,472 493,471 497,467 497,466 500,463 468,431 467,431 460,424 459,424 455,420 454,420 450,416 449,416 446,413 445,413 443,411 442,411 440,409 439,409 437,407 436,407 435,406 434,406 432,404 431,404 430,403 429,403 428,402 427,402 426,401 425,401 424,400 423,400 422,399 421,399 420,398 419,398 418,397 417,397 416,396 415,396 414,395 412,395 411,394 410,394 409,393 407,393 406,392 405,392 404,391 402,391 401,390 398,390 397,389 395,389 394,388 391,388 390,387 387,387 386,386 382,386 381,385 376,385 375,384 369,384 368,383" stroke="none" /><polygon fill="url(#grad)" points="770,327 769,328 768,328 767,329 766,329 763,332 762,332 760,334 759,334 758,335 757,335 754,338 753,338 751,340 750,340 748,342 747,342 745,344 744,344 743,345 742,345 740,347 739,347 737,349 736,349 734,351 733,351 732,352 731,352 729,354 728,354 726,356 725,356 723,358 722,358 720,360 719,360 717,362 716,362 715,363 714,363 712,365 711,365 709,367 708,367 706,369 705,369 703,371 702,371 700,373 699,373 697,375 696,375 695,376 697,378 699,378 700,379 702,379 703,380 705,380 706,381 709,381 710,382 711,382 712,383 715,383 716,384 718,384 719,385 721,385 722,386 724,386 726,388 726,389 725,390 725,392 724,393 724,394 723,395 723,396 722,397 722,398 721,399 721,400 720,401 720,402 719,403 719,404 717,406 717,407 716,408 716,409 715,410 715,411 713,413 713,414 712,415 712,416 710,418 710,419 709,420 709,421 707,423 707,424 706,425 706,426 704,428 704,429 703,430 703,431 701,433 701,434 699,436 699,437 698,438 698,439 696,441 696,442 694,444 694,445 692,447 692,448 690,450 690,451 688,453 688,454 685,457 685,458 683,460 683,461 680,464 680,465 677,468 677,469 673,473 673,474 669,478 669,479 664,484 664,485 654,495 654,496 633,517 632,517 625,524 624,524 619,529 618,529 615,532 614,532 611,535 610,535 608,537 607,537 605,539 604,539 602,541 601,541 600,542 599,542 598,543 597,543 595,545 594,545 593,546 592,546 591,547 590,547 589,548 587,548 586,549 585,549 584,550 582,550 581,551 579,551 578,552 576,552 575,553 570,553 566,549 566,548 562,544 562,543 557,538 557,537 553,533 553,532 549,528 549,527 546,524 542,528 542,529 537,534 537,535 533,539 533,540 529,544 529,545 525,549 525,550 523,552 523,553 526,556 526,557 530,561 530,562 533,565 533,566 536,569 536,570 539,573 539,574 542,577 542,578 545,581 545,582 549,586 549,587 551,589 551,590 555,594 555,595 558,598 558,599 562,603 562,604 567,609 567,610 583,626 584,626 589,631 590,631 593,634 594,634 596,636 597,636 599,638 600,638 602,640 603,640 604,641 605,641 607,643 608,643 609,644 610,644 611,645 612,645 613,646 614,646 615,647 617,647 618,648 619,648 620,649 622,649 623,650 624,650 625,651 627,651 628,652 630,652 631,653 634,653 635,654 639,654 640,655 643,655 644,656 648,656 649,657 654,657 655,658 666,658 667,659 681,659 682,658 691,658 692,657 697,657 698,656 703,656 704,655 706,655 707,654 710,654 711,653 714,653 715,652 717,652 718,651 720,651 721,650 722,650 723,649 724,649 725,648 727,648 728,647 729,647 730,646 731,646 732,645 733,645 734,644 735,644 736,643 737,643 739,641 740,641 741,640 742,640 744,638 745,638 746,637 747,637 750,634 751,634 754,631 755,631 759,627 760,627 771,616 771,615 777,609 777,608 780,605 780,604 783,601 783,600 785,598 785,597 787,595 787,594 788,593 788,592 790,590 790,589 791,588 791,587 792,586 792,585 793,584 793,582 794,581 794,580 795,579 795,578 796,577 796,575 797,574 797,573 798,572 798,570 799,569 799,567 800,566 800,563 801,562 801,560 802,559 802,555 803,554 803,551 804,550 804,545 805,544 805,537 806,536 806,508 805,507 805,501 804,500 804,496 803,495 803,492 802,491 802,489 801,488 801,485 800,484 800,482 799,481 799,479 798,478 798,476 797,475 797,474 796,473 796,471 795,470 795,469 794,468 794,467 793,466 793,465 792,464 792,463 791,462 791,461 790,460 790,459 789,458 789,457 788,456 788,455 786,453 786,452 785,451 785,450 783,448 783,447 782,446 782,445 779,442 779,441 768,430 767,430 766,429 765,429 764,428 763,428 762,429 762,430 761,431 761,432 760,433 760,434 758,436 758,437 757,438 757,439 756,440 756,441 755,442 755,443 753,445 753,446 752,447 752,448 750,450 750,451 749,452 749,453 746,456 746,457 745,458 745,459 747,461 747,462 750,465 750,466 751,467 751,468 753,470 753,471 754,472 754,473 755,474 755,475 756,476 756,477 757,478 757,479 758,480 758,481 759,482 759,484 760,485 760,486 761,487 761,488 762,489 762,491 763,492 763,494 764,495 764,498 765,499 765,503 766,504 766,508 767,509 767,519 768,520 768,528 767,529 767,538 766,539 766,544 765,545 765,549 764,550 764,552 763,553 763,555 762,556 762,558 761,559 761,561 760,562 760,563 759,564 759,565 758,566 758,568 756,570 756,571 755,572 755,573 754,574 754,575 752,577 752,578 749,581 749,582 746,585 746,586 736,596 735,596 730,601 729,601 726,604 725,604 723,606 722,606 721,607 720,607 719,608 718,608 716,610 715,610 714,611 713,611 712,612 710,612 709,613 708,613 707,614 705,614 704,615 702,615 701,616 699,616 698,617 694,617 693,618 689,618 688,619 682,619 681,620 661,620 660,619 656,619 655,618 650,618 649,617 647,617 646,616 643,616 642,615 641,615 640,614 637,614 636,613 635,613 634,612 633,612 632,611 631,611 630,610 628,610 626,608 625,608 624,607 623,607 622,606 621,606 619,604 618,604 616,602 615,602 611,598 610,598 607,595 606,595 598,587 598,586 593,581 594,580 595,580 596,579 598,579 599,578 600,578 601,577 603,577 604,576 605,576 606,575 607,575 608,574 609,574 610,573 611,573 613,571 614,571 615,570 616,570 618,568 619,568 621,566 622,566 624,564 625,564 627,562 628,562 630,560 631,560 634,557 635,557 638,554 639,554 644,549 645,549 651,543 652,543 663,532 664,532 673,523 673,522 685,510 685,509 691,503 691,502 697,496 697,495 701,491 701,490 705,486 705,485 709,481 709,480 712,477 712,476 715,473 715,472 718,469 718,468 721,465 721,464 723,462 723,461 725,459 725,458 727,456 727,455 729,453 729,452 731,450 731,449 732,448 732,447 734,445 734,444 735,443 735,442 737,440 737,439 738,438 738,437 740,435 740,434 741,433 741,432 742,431 742,430 744,428 744,427 745,426 745,425 747,423 747,422 748,421 748,420 750,418 750,417 752,415 752,414 754,412 754,411 756,409 756,408 758,406 758,405 759,404 762,407 763,407 765,409 766,409 769,412 770,412 772,414 773,414 777,418 778,418 780,420 781,420 783,422 784,422 786,420 786,417 785,416 785,411 784,410 784,403 783,402 783,396 782,395 782,389 781,388 781,381 780,380 780,373 779,372 779,365 778,364 778,358 777,357 777,350 776,349 776,342 775,341 775,335 774,334 774,330 773,329 773,328 772,327" stroke="none" /></svg>