<svg version="1.1" id="Layer_1" xmlns="http://www.w3.org/2000/svg" xmlns:xlink="http://www.w3.org/1999/xlink" x="0px" y="0px"
	 width="100%" viewBox="0 0 325 262" enable-background="new 0 0 325 262" xml:space="preserve">
<path fill="#000000" opacity="1.000000" stroke="none" 
	d="
M166.000000,263.000000 
	C110.666679,263.000000 55.833351,263.000000 1.000022,263.000000 
	C1.000015,175.666687 1.000015,88.333382 1.000007,1.000057 
	C109.333290,1.000038 217.666580,1.000038 325.999908,1.000019 
	C325.999939,88.333275 325.999939,175.666550 325.999969,262.999908 
	C272.833344,263.000000 219.666672,263.000000 166.000000,263.000000 
M153.302994,174.704102 
	C170.095505,181.295624 186.621002,181.018997 202.348480,171.827087 
	C218.631317,162.310593 227.506195,147.688278 228.895432,128.976105 
	C229.942017,114.879402 225.523239,101.999115 216.484497,91.247337 
	C208.632172,81.906837 198.682480,75.400604 185.222763,73.987572 
	C169.092834,68.561897 143.257553,77.984566 138.430771,88.999702 
	C139.868103,88.999702 141.201553,89.101074 142.514618,88.980499 
	C146.295731,88.633286 149.673477,89.903969 149.779465,93.809692 
	C149.896912,98.136932 146.344818,99.096161 142.407547,99.044739 
	C132.244522,98.911995 122.078552,98.982689 111.913857,99.010017 
	C107.890656,99.020836 103.642883,102.406265 104.141212,105.588921 
	C104.761253,109.548897 107.250145,111.298157 111.540527,111.084335 
	C118.023148,110.761261 124.533890,110.994812 131.032654,111.005493 
	C135.130920,111.012222 137.997101,113.039429 137.819168,117.123383 
	C137.659882,120.779579 134.761765,122.090202 131.081696,122.045212 
	C120.585236,121.916862 110.085945,121.961296 99.588249,122.020630 
	C94.933891,122.046936 93.056465,124.192413 92.966522,128.719589 
	C92.873138,133.420166 95.632172,134.068085 99.447182,134.037109 
	C111.777390,133.936981 124.109001,133.975204 136.439896,134.017075 
	C140.154922,134.029678 143.576279,134.826935 143.943802,139.387466 
	C144.239944,143.062180 141.478088,144.985321 136.326508,144.996933 
	C128.994583,145.013458 121.659332,144.877182 114.331963,145.061996 
	C110.221855,145.165680 107.823875,147.645721 108.095322,151.765518 
	C108.340057,155.479996 110.859322,157.083954 114.563225,157.017654 
	C119.060928,156.937149 123.604050,156.632751 128.042801,157.150940 
	C130.362686,157.421783 132.689102,158.985733 134.686340,160.419952 
	C140.851456,164.847214 146.859680,169.492950 153.302994,174.704102 
M53.580791,132.010223 
	C55.327469,132.673203 57.053249,133.833405 58.824657,133.907852 
	C64.616447,134.151245 70.426292,133.920639 76.226395,134.025848 
	C80.316864,134.100037 82.889168,132.705719 83.006012,128.210510 
	C83.127014,123.555641 79.987000,122.237770 76.313988,122.074806 
	C70.523338,121.817886 64.709885,121.886292 58.911846,122.037514 
	C53.143368,122.187943 50.990170,125.781212 53.580791,132.010223 
M94.200562,156.999954 
	C99.337708,156.901718 102.282852,154.734985 101.912720,150.884689 
	C101.486176,146.447495 98.514816,144.858627 94.299026,144.982437 
	C90.974724,145.080048 87.638435,144.872147 84.320091,145.043793 
	C80.195496,145.257111 78.565056,148.458755 78.564713,151.737747 
	C78.564392,154.733658 80.314819,157.346893 84.292419,157.042511 
	C87.269302,156.814697 90.277740,156.999191 94.200562,156.999954 
z"/>
<path fill="#5AB334" opacity="1.000000" stroke="none" 
	d="
M152.928833,174.053833 
	C146.859680,169.492950 140.851456,164.847214 134.686340,160.419952 
	C132.689102,158.985733 130.362686,157.421783 128.042801,157.150940 
	C123.604050,156.632751 119.060928,156.937149 114.563225,157.017654 
	C110.859322,157.083954 108.340057,155.479996 108.095322,151.765518 
	C107.823875,147.645721 110.221855,145.165680 114.331963,145.061996 
	C121.659332,144.877182 128.994583,145.013458 136.326508,144.996933 
	C141.478088,144.985321 144.239944,143.062180 143.943802,139.387466 
	C143.576279,134.826935 140.154922,134.029678 136.439896,134.017075 
	C124.109001,133.975204 111.777390,133.936981 99.447182,134.037109 
	C95.632172,134.068085 92.873138,133.420166 92.966522,128.719589 
	C93.056465,124.192413 94.933891,122.046936 99.588249,122.020630 
	C110.085945,121.961296 120.585236,121.916862 131.081696,122.045212 
	C134.761765,122.090202 137.659882,120.779579 137.819168,117.123383 
	C137.997101,113.039429 135.130920,111.012222 131.032654,111.005493 
	C124.533890,110.994812 118.023148,110.761261 111.540527,111.084335 
	C107.250145,111.298157 104.761253,109.548897 104.141212,105.588921 
	C103.642883,102.406265 107.890656,99.020836 111.913857,99.010017 
	C122.078552,98.982689 132.244522,98.911995 142.407547,99.044739 
	C146.344818,99.096161 149.896912,98.136932 149.779465,93.809692 
	C149.673477,89.903969 146.295731,88.633286 142.514618,88.980499 
	C141.201553,89.101074 139.868103,88.999702 138.430771,88.999702 
	C143.257553,77.984566 169.092834,68.561897 185.870728,74.291008 
	C188.111588,75.795998 189.707504,76.993523 191.296875,78.199707 
	C214.607788,95.890656 219.384842,129.546982 201.599884,152.488922 
	C189.319550,168.330109 172.519638,174.462555 152.928833,174.053833 
M184.123108,153.918350 
	C185.293350,153.313049 186.482864,152.742035 187.630768,152.096985 
	C196.354156,147.194824 199.596008,137.906250 194.939240,130.063950 
	C191.887268,124.924248 186.988464,121.888741 181.340942,119.934441 
	C177.942825,118.758545 174.456696,117.507607 171.489456,115.560066 
	C170.084625,114.638000 169.103973,111.953117 169.233032,110.160660 
	C169.338043,108.702507 171.149643,106.985832 172.633652,106.116676 
	C174.089981,105.263756 176.143646,104.880867 177.837296,105.088791 
	C182.452621,105.655403 187.016281,106.643044 191.599609,107.468948 
	C193.844864,97.213318 193.847366,97.201355 183.716415,95.078766 
	C182.633163,94.851814 181.499390,94.865959 180.175949,94.749504 
	C180.034546,91.685364 179.908401,88.952126 179.786880,86.318893 
	C176.597061,86.318893 174.003723,86.318893 171.035248,86.318893 
	C171.035248,89.575127 171.035248,92.528816 171.035248,95.332352 
	C169.450363,95.965172 168.273331,96.517685 167.045410,96.911629 
	C160.635422,98.968063 155.971420,102.779488 155.051102,109.779343 
	C153.972382,117.983887 157.592102,123.711014 165.100128,127.014778 
	C169.450043,128.928894 174.101151,130.332962 178.097214,132.806030 
	C180.218872,134.119064 182.611786,137.347748 182.418503,139.489319 
	C182.136688,142.611710 179.605438,145.465775 175.426620,145.004425 
	C169.331070,144.331467 163.231155,143.698196 156.517166,142.982330 
	C155.813461,145.426102 154.934387,148.478882 153.787720,152.460907 
	C159.551941,153.951447 164.996719,155.359390 170.827393,156.867111 
	C170.943207,159.233170 171.077286,161.972260 171.211853,164.721466 
	C173.989792,164.721466 176.249069,164.721466 178.902771,164.721466 
	C178.902771,161.518387 178.902771,158.569565 178.902771,155.619705 
	C180.612854,154.999512 181.971191,154.506882 184.123108,153.918350 
z"/>
<path fill="#81CC2A" opacity="1.000000" stroke="none" 
	d="
M153.115906,174.378967 
	C172.519638,174.462555 189.319550,168.330109 201.599884,152.488922 
	C219.384842,129.546982 214.607788,95.890656 191.296875,78.199707 
	C189.707504,76.993523 188.111588,75.795998 186.277664,74.375854 
	C198.682480,75.400604 208.632172,81.906837 216.484497,91.247337 
	C225.523239,101.999115 229.942017,114.879402 228.895432,128.976105 
	C227.506195,147.688278 218.631317,162.310593 202.348480,171.827087 
	C186.621002,181.018997 170.095505,181.295624 153.115906,174.378967 
z"/>
<path fill="#5AB334" opacity="1.000000" stroke="none" 
	d="
M53.346165,131.678833 
	C50.990170,125.781212 53.143368,122.187943 58.911846,122.037514 
	C64.709885,121.886292 70.523338,121.817886 76.313988,122.074806 
	C79.987000,122.237770 83.127014,123.555641 83.006012,128.210510 
	C82.889168,132.705719 80.316864,134.100037 76.226395,134.025848 
	C70.426292,133.920639 64.616447,134.151245 58.824657,133.907852 
	C57.053249,133.833405 55.327469,132.673203 53.346165,131.678833 
z"/>
<path fill="#5AB334" opacity="1.000000" stroke="none" 
	d="
M93.736343,157.000031 
	C90.277740,156.999191 87.269302,156.814697 84.292419,157.042511 
	C80.314819,157.346893 78.564392,154.733658 78.564713,151.737747 
	C78.565056,148.458755 80.195496,145.257111 84.320091,145.043793 
	C87.638435,144.872147 90.974724,145.080048 94.299026,144.982437 
	C98.514816,144.858627 101.486176,146.447495 101.912720,150.884689 
	C102.282852,154.734985 99.337708,156.901718 93.736343,157.000031 
z"/>
<path fill="#000000" opacity="1.000000" stroke="none" 
	d="
M183.726318,153.966309 
	C181.971191,154.506882 180.612854,154.999512 178.902771,155.619705 
	C178.902771,158.569565 178.902771,161.518387 178.902771,164.721466 
	C176.249069,164.721466 173.989792,164.721466 171.211853,164.721466 
	C171.077286,161.972260 170.943207,159.233170 170.827393,156.867111 
	C164.996719,155.359390 159.551941,153.951447 153.787720,152.460907 
	C154.934387,148.478882 155.813461,145.426102 156.517166,142.982330 
	C163.231155,143.698196 169.331070,144.331467 175.426620,145.004425 
	C179.605438,145.465775 182.136688,142.611710 182.418503,139.489319 
	C182.611786,137.347748 180.218872,134.119064 178.097214,132.806030 
	C174.101151,130.332962 169.450043,128.928894 165.100128,127.014778 
	C157.592102,123.711014 153.972382,117.983887 155.051102,109.779343 
	C155.971420,102.779488 160.635422,98.968063 167.045410,96.911629 
	C168.273331,96.517685 169.450363,95.965172 171.035248,95.332352 
	C171.035248,92.528816 171.035248,89.575127 171.035248,86.318893 
	C174.003723,86.318893 176.597061,86.318893 179.786880,86.318893 
	C179.908401,88.952126 180.034546,91.685364 180.175949,94.749504 
	C181.499390,94.865959 182.633163,94.851814 183.716415,95.078766 
	C193.847366,97.201355 193.844864,97.213318 191.600006,107.466408 
	C187.016281,106.643044 182.452621,105.655403 177.837296,105.088791 
	C176.143646,104.880867 174.089981,105.263756 172.633652,106.116676 
	C171.149643,106.985832 169.338043,108.702507 169.233032,110.160660 
	C169.103973,111.953117 170.084625,114.638000 171.489456,115.560066 
	C174.456696,117.507607 177.942825,118.758545 181.340942,119.934441 
	C186.988464,121.888741 191.887268,124.924248 194.939240,130.063950 
	C199.596008,137.906250 196.354156,147.194824 187.630768,152.096985 
	C186.482864,152.742035 185.293350,153.313049 183.726318,153.966309 
z"/>
</svg>